<?xml version="1.0" standalone="no"?>
<!DOCTYPE svg PUBLIC "-//W3C//DTD SVG 20010904//EN"
 "http://www.w3.org/TR/2001/REC-SVG-20010904/DTD/svg10.dtd">
<svg version="1.0" xmlns="http://www.w3.org/2000/svg"
 width="512.000000pt" height="512.000000pt" viewBox="0 0 512.000000 512.000000"
 preserveAspectRatio="xMidYMid meet">

<g transform="translate(0.000000,512.000000) scale(0.100000,-0.100000)"
fill="#000000" stroke="none">
<path d="M2354 5110 c-620 -52 -1197 -325 -1630 -771 -312 -322 -539 -729
-643 -1149 -107 -435 -106 -859 4 -1277 48 -184 92 -299 185 -488 127 -259
266 -454 473 -664 405 -411 911 -661 1497 -742 138 -19 536 -17 673 4 757 116
1381 514 1797 1147 203 310 338 678 391 1070 17 124 18 517 1 635 -66 465
-232 869 -504 1232 -82 111 -337 372 -444 455 -197 155 -488 319 -718 403
-138 51 -340 101 -502 124 -160 24 -433 33 -580 21z m-672 -959 c56 -39 82
-85 86 -156 3 -48 0 -70 -17 -102 -66 -130 -231 -150 -328 -40 -86 98 -55 254
60 308 58 27 151 22 199 -10z m43 -1686 l0 -1070 -152 -3 -153 -3 0 1076 0
1076 153 -3 152 -3 0 -1070z m1405 1065 c193 -17 327 -55 480 -136 260 -138
434 -370 512 -682 18 -72 22 -115 22 -247 -1 -140 -4 -172 -26 -256 -102 -378
-374 -658 -742 -764 -159 -45 -183 -47 -698 -52 l-498 -5 0 1076 0 1076 418 0
c229 0 469 -5 532 -10z"/>
<path d="M2490 2465 l0 -795 253 0 c323 0 443 11 569 54 129 44 197 86 289
176 90 89 146 180 191 310 32 92 33 100 33 255 0 183 -11 241 -74 370 -73 149
-175 251 -327 325 -160 79 -307 100 -696 100 l-238 0 0 -795z"/>
</g>
</svg>
